<svg width="278" height="370" viewBox="0 0 278 370" fill="none" xmlns="http://www.w3.org/2000/svg">
<path d="M15.175 344.675C13.275 344.675 11.825 344.15 10.825 343.1C9.825 342.05 9.325 340.575 9.325 338.675V297.05C9.325 295.1 9.825 293.625 10.825 292.625C11.875 291.625 13.35 291.125 15.25 291.125H33.475C39.375 291.125 43.925 292.55 47.125 295.4C50.325 298.25 51.925 302.225 51.925 307.325C51.925 310.625 51.2 313.475 49.75 315.875C48.3 318.275 46.2 320.125 43.45 321.425C40.75 322.725 37.425 323.375 33.475 323.375L34.075 322.1H37.15C39.25 322.1 41.075 322.625 42.625 323.675C44.225 324.675 45.6 326.225 46.75 328.325L51.4 336.95C52.1 338.2 52.425 339.425 52.375 340.625C52.325 341.825 51.875 342.8 51.025 343.55C50.175 344.3 48.925 344.675 47.275 344.675C45.625 344.675 44.275 344.325 43.225 343.625C42.225 342.925 41.325 341.85 40.525 340.4L33.325 327.125C32.575 325.725 31.65 324.775 30.55 324.275C29.5 323.775 28.2 323.525 26.65 323.525H20.95V338.675C20.95 340.575 20.45 342.05 19.45 343.1C18.5 344.15 17.075 344.675 15.175 344.675ZM20.95 315.125H31.375C34.475 315.125 36.8 314.5 38.35 313.25C39.95 312 40.75 310.125 40.75 307.625C40.75 305.175 39.95 303.325 38.35 302.075C36.8 300.825 34.475 300.2 31.375 300.2H20.95V315.125ZM67.6217 344C65.6717 344 64.1717 343.475 63.1217 342.425C62.0717 341.375 61.5467 339.875 61.5467 337.925V297.2C61.5467 295.25 62.0717 293.75 63.1217 292.7C64.1717 291.65 65.6717 291.125 67.6217 291.125H93.7967C95.2967 291.125 96.4217 291.525 97.1717 292.325C97.9717 293.075 98.3717 294.175 98.3717 295.625C98.3717 297.125 97.9717 298.275 97.1717 299.075C96.4217 299.825 95.2967 300.2 93.7967 300.2H72.6467V312.575H92.0717C93.6217 312.575 94.7717 312.975 95.5217 313.775C96.3217 314.525 96.7217 315.65 96.7217 317.15C96.7217 318.65 96.3217 319.8 95.5217 320.6C94.7717 321.35 93.6217 321.725 92.0717 321.725H72.6467V334.925H93.7967C95.2967 334.925 96.4217 335.325 97.1717 336.125C97.9717 336.875 98.3717 337.975 98.3717 339.425C98.3717 340.925 97.9717 342.075 97.1717 342.875C96.4217 343.625 95.2967 344 93.7967 344H67.6217ZM125.124 344.825C123.024 344.825 120.874 344.65 118.674 344.3C116.524 344 114.449 343.55 112.449 342.95C110.499 342.35 108.749 341.6 107.199 340.7C106.099 340.1 105.324 339.325 104.874 338.375C104.424 337.375 104.249 336.375 104.349 335.375C104.499 334.375 104.874 333.5 105.474 332.75C106.124 331.95 106.924 331.45 107.874 331.25C108.874 331 109.974 331.175 111.174 331.775C113.224 332.925 115.449 333.775 117.849 334.325C120.299 334.875 122.724 335.15 125.124 335.15C128.774 335.15 131.374 334.6 132.924 333.5C134.474 332.35 135.249 330.925 135.249 329.225C135.249 327.775 134.699 326.625 133.599 325.775C132.499 324.925 130.574 324.2 127.824 323.6L119.349 321.8C114.549 320.8 110.974 319.1 108.624 316.7C106.324 314.25 105.174 311.05 105.174 307.1C105.174 304.6 105.699 302.325 106.749 300.275C107.799 298.225 109.274 296.45 111.174 294.95C113.074 293.45 115.324 292.3 117.924 291.5C120.574 290.7 123.474 290.3 126.624 290.3C129.424 290.3 132.174 290.65 134.874 291.35C137.574 292 139.949 292.975 141.999 294.275C142.999 294.875 143.674 295.65 144.024 296.6C144.424 297.5 144.549 298.425 144.399 299.375C144.299 300.275 143.924 301.075 143.274 301.775C142.674 302.475 141.899 302.925 140.949 303.125C139.999 303.325 138.849 303.1 137.499 302.45C135.849 301.6 134.099 300.975 132.249 300.575C130.399 300.175 128.499 299.975 126.549 299.975C124.449 299.975 122.649 300.25 121.149 300.8C119.699 301.35 118.574 302.125 117.774 303.125C117.024 304.125 116.649 305.275 116.649 306.575C116.649 308.025 117.174 309.2 118.224 310.1C119.274 311 121.099 311.725 123.699 312.275L132.174 314.075C137.074 315.125 140.724 316.825 143.124 319.175C145.524 321.475 146.724 324.525 146.724 328.325C146.724 330.825 146.224 333.1 145.224 335.15C144.224 337.15 142.774 338.875 140.874 340.325C138.974 341.775 136.699 342.9 134.049 343.7C131.399 344.45 128.424 344.825 125.124 344.825ZM171.623 344.675C169.723 344.675 168.273 344.15 167.273 343.1C166.273 342.05 165.773 340.575 165.773 338.675V300.725H152.498C150.948 300.725 149.748 300.3 148.898 299.45C148.048 298.6 147.623 297.425 147.623 295.925C147.623 294.375 148.048 293.2 148.898 292.4C149.748 291.55 150.948 291.125 152.498 291.125H190.673C192.223 291.125 193.423 291.55 194.273 292.4C195.123 293.2 195.548 294.375 195.548 295.925C195.548 297.425 195.123 298.6 194.273 299.45C193.423 300.3 192.223 300.725 190.673 300.725H177.398V338.675C177.398 340.575 176.898 342.05 175.898 343.1C174.948 344.15 173.523 344.675 171.623 344.675ZM221.936 344.825C216.736 344.825 212.161 343.7 208.211 341.45C204.311 339.15 201.261 335.95 199.061 331.85C196.911 327.75 195.836 322.975 195.836 317.525C195.836 313.375 196.436 309.65 197.636 306.35C198.886 303 200.661 300.15 202.961 297.8C205.261 295.4 208.011 293.55 211.211 292.25C214.461 290.95 218.036 290.3 221.936 290.3C227.236 290.3 231.836 291.425 235.736 293.675C239.636 295.925 242.661 299.1 244.811 303.2C247.011 307.25 248.111 312 248.111 317.45C248.111 321.6 247.486 325.35 246.236 328.7C244.986 332.05 243.211 334.925 240.911 337.325C238.611 339.725 235.861 341.575 232.661 342.875C229.461 344.175 225.886 344.825 221.936 344.825ZM221.936 334.925C224.886 334.925 227.386 334.25 229.436 332.9C231.536 331.5 233.136 329.5 234.236 326.9C235.386 324.25 235.961 321.125 235.961 317.525C235.961 312.025 234.736 307.775 232.286 304.775C229.836 301.725 226.386 300.2 221.936 300.2C219.036 300.2 216.536 300.875 214.436 302.225C212.336 303.575 210.736 305.55 209.636 308.15C208.536 310.75 207.986 313.875 207.986 317.525C207.986 322.975 209.211 327.25 211.661 330.35C214.111 333.4 217.536 334.925 221.936 334.925Z" fill="url(#paint0_linear_102_3)"/>
<path d="M24.6526 19L236.716 231.328C240.74 235.357 243 240.821 243 246.519C243 252.217 240.74 257.681 236.716 261.71C232.691 265.738 227.233 268 221.543 268C215.853 268 210.396 265.738 206.371 261.71L154.568 208.95C151.178 205.503 149.276 200.861 149.273 196.023V192.836C149.273 190.394 148.789 187.975 147.848 185.722C146.908 183.468 145.529 181.424 143.793 179.708L137.105 173.524C134.834 171.427 132.073 169.935 129.076 169.185C126.079 168.436 122.941 168.454 119.952 169.237C115.239 170.468 110.286 170.444 105.585 169.168C100.884 167.891 96.5984 165.405 93.153 161.958L43.9807 112.718C14.81 83.5114 4.07536 39.4069 24.6526 19Z" stroke="url(#paint1_linear_102_3)" stroke-width="20" stroke-linejoin="round"/>
<path d="M106.747 203.504L49.3178 261.255C44.9979 265.574 39.1396 268 33.0312 268C26.9229 268 21.0646 265.574 16.7447 261.255V261.255C12.4261 256.935 10 251.077 10 244.969C10 238.86 12.4261 233.002 16.7447 228.682L65.2818 180.468M221.928 10L177.439 54.4886C174.016 57.9113 171.3 61.9748 169.447 66.4472C167.595 70.9195 166.641 75.713 166.641 80.554V89.1119C166.641 90.3227 166.403 91.5217 165.939 92.6403C165.476 93.7589 164.796 94.7752 163.94 95.6311L157.426 102.145L221.928 10ZM175.855 120.574L182.369 114.06C183.225 113.204 184.241 112.524 185.36 112.061C186.478 111.597 187.677 111.359 188.888 111.359H197.446C202.287 111.359 207.08 110.405 211.553 108.553C216.025 106.7 220.089 103.984 223.511 100.561L268 56.0723L175.855 120.574ZM244.964 33.0362L198.892 79.1085L244.964 33.0362Z" stroke="url(#paint2_linear_102_3)" stroke-width="20" stroke-linecap="round" stroke-linejoin="round"/>
<defs>
<linearGradient id="paint0_linear_102_3" x1="128" y1="268" x2="128" y2="370" gradientUnits="userSpaceOnUse">
<stop/>
<stop offset="1" stop-color="#F3BD58"/>
</linearGradient>
<linearGradient id="paint1_linear_102_3" x1="128.5" y1="19" x2="128.5" y2="268" gradientUnits="userSpaceOnUse">
<stop stop-color="#F3BD58"/>
<stop offset="0.9996"/>
<stop offset="0.9997" stop-color="#040403"/>
<stop offset="0.9998"/>
</linearGradient>
<linearGradient id="paint2_linear_102_3" x1="139" y1="10" x2="139" y2="268" gradientUnits="userSpaceOnUse">
<stop stop-color="#F3BD58"/>
<stop offset="0.9996"/>
<stop offset="0.9997" stop-color="#040403"/>
<stop offset="0.9998"/>
</linearGradient>
</defs>
</svg>
